<?xml version="1.0" encoding="UTF-8" standalone="no"?>
<svg width="288px" height="212px" viewBox="0 0 288 212" version="1.1" xmlns="http://www.w3.org/2000/svg" xmlns:xlink="http://www.w3.org/1999/xlink" xmlns:sketch="http://www.bohemiancoding.com/sketch/ns">
    <!-- Generator: Sketch 3.3.2 (12043) - http://www.bohemiancoding.com/sketch -->
    <title>empty</title>
    <desc>Created with Sketch.</desc>
    <defs></defs>
    <g id="Page-1" stroke="none" stroke-width="1" fill="none" fill-rule="evenodd" sketch:type="MSPage">
        <g id="empty" sketch:type="MSLayerGroup">
            <rect id="Rectangle-1" fill="#F5F5F5" sketch:type="MSShapeGroup" x="0" y="0" width="288" height="212"></rect>
            <path d="M179.3,150 L170.3,147.5 L170.3,122.7 L178.9,125.1 L191.3,79 L128.7,62.2 L124.6,77.6 L117.5,77.6 L123.9,53.9 L199.6,74.2 L179.3,150 L179.3,150 Z M167.2,158.2 L88.5,158.2 L88.5,79.8 L167.1,79.8 L167.1,158.2 L167.2,158.2 Z M160.3,86.6 L95.3,86.6 L95.3,134.3 L160.3,134.3 L160.3,86.6 L160.3,86.6 Z M115.3,120.6 L123.1,108 L130.9,115.9 L141.6,99.8 L152.8,127.6 L103.1,127.6 L109.4,114.9 L115.3,120.6 L115.3,120.6 Z M110.7,107.3 C107.9,107.3 105.6,105 105.6,102.2 C105.6,99.4 107.9,97.1 110.7,97.1 C113.5,97.1 115.8,99.4 115.8,102.2 C115.8,105 113.5,107.3 110.7,107.3 L110.7,107.3 Z" id="Shape" fill="#CDCDCD" sketch:type="MSShapeGroup"></path>
        </g>
    </g>
</svg>