<?xml version="1.0" encoding="utf-8"?>
<!-- Generator: Adobe Illustrator 18.1.0, SVG Export Plug-In . SVG Version: 6.00 Build 0)  -->
<svg version="1.1" id="Calque_1" xmlns="http://www.w3.org/2000/svg" xmlns:xlink="http://www.w3.org/1999/xlink" x="0px" y="0px"
	 viewBox="5 0 955 560" enable-background="new 5 0 955 560" xml:space="preserve">
<g>
	<g>
		<rect x="0.6" y="516" fill="#CB001C" width="958.8" height="42.3"/>
		<rect x="0.6" y="473.7" fill="#FFFFFF" width="958.8" height="42.3"/>
		<rect x="0.6" y="429.8" fill="#CB001C" width="958.8" height="42.3"/>
		<rect x="0.6" y="387.4" fill="#FFFFFF" width="958.8" height="42.3"/>
		<rect x="0.6" y="345.1" fill="#CB001C" width="958.8" height="42.3"/>
		<rect x="0.6" y="301.2" fill="#FFFFFF" width="958.8" height="42.3"/>
		<rect x="0.6" y="258.8" fill="#CB001C" width="958.8" height="42.3"/>
		<rect x="0.6" y="214.9" fill="#FFFFFF" width="958.8" height="42.3"/>
		<rect x="0.6" y="172.6" fill="#CB001C" width="958.8" height="42.3"/>
		<rect x="0.6" y="128.6" fill="#FFFFFF" width="958.8" height="42.3"/>
		<rect x="0.6" y="86.3" fill="#CB001C" width="958.8" height="42.3"/>
		<rect x="0.6" y="42.3" fill="#FFFFFF" width="958.8" height="42.3"/>
		<rect x="0.6" y="0" fill="#CB001C" width="958.8" height="42.3"/>
		<rect x="0.6" fill="#2A3560" width="437.9" height="301.2"/>
		<polygon fill="#FFFFFF" points="39.7,32.6 44.5,44 55.9,44 46.2,52.1 49.4,63.5 39.7,55.3 29.9,63.5 34.8,52.1 25,44 36.4,44 		
			"/>
		<polygon fill="#FFFFFF" points="39.7,83 44.5,94.4 55.9,94.4 46.2,102.6 49.4,114 39.7,105.8 29.9,114 34.8,102.6 25,94.4 
			36.4,94.4 		"/>
		<polygon fill="#FFFFFF" points="39.7,133.5 44.5,144.9 55.9,144.9 46.2,151.4 49.4,164.4 39.7,156.3 29.9,164.4 34.8,151.4 
			25,144.9 36.4,144.9 		"/>
		<polygon fill="#FFFFFF" points="39.7,184 44.5,195.3 55.9,195.3 46.2,201.9 49.4,213.3 39.7,206.7 29.9,213.3 34.8,201.9 
			25,195.3 36.4,195.3 		"/>
		<polygon fill="#FFFFFF" points="39.7,234.4 44.5,245.8 55.9,245.8 46.2,252.3 49.4,263.7 39.7,257.2 29.9,263.7 34.8,252.3 
			25,245.8 36.4,245.8 		"/>
		<polygon fill="#FFFFFF" points="75.5,60.2 78.7,71.6 90.1,71.6 80.3,78.1 85.2,89.5 75.5,83 65.7,89.5 69,78.1 59.2,71.6 
			72.2,71.6 		"/>
		<polygon fill="#FFFFFF" points="75.5,110.7 78.7,122.1 90.1,122.1 80.3,128.6 85.2,140 75.5,133.5 65.7,140 69,128.6 59.2,122.1 
			72.2,122.1 		"/>
		<polygon fill="#FFFFFF" points="75.5,159.5 78.7,170.9 90.1,170.9 80.3,179.1 85.2,190.5 75.5,182.3 65.7,190.5 69,179.1 
			59.2,170.9 72.2,170.9 		"/>
		<polygon fill="#FFFFFF" points="75.5,210 78.7,221.4 90.1,221.4 80.3,229.5 85.2,240.9 75.5,232.8 65.7,240.9 69,229.5 
			59.2,221.4 72.2,221.4 		"/>
		<polygon fill="#FFFFFF" points="111.3,32.6 114.5,44 125.9,44 116.2,52.1 121,63.5 111.3,55.3 101.5,63.5 104.8,52.1 95,44 
			106.4,44 		"/>
		<polygon fill="#FFFFFF" points="111.3,83 114.5,94.4 125.9,94.4 116.2,102.6 121,114 111.3,105.8 101.5,114 104.8,102.6 95,94.4 
			106.4,94.4 		"/>
		<polygon fill="#FFFFFF" points="111.3,133.5 114.5,144.9 125.9,144.9 116.2,151.4 121,164.4 111.3,156.3 101.5,164.4 104.8,151.4 
			95,144.9 106.4,144.9 		"/>
		<polygon fill="#FFFFFF" points="111.3,184 114.5,195.3 125.9,195.3 116.2,201.9 121,213.3 111.3,206.7 101.5,213.3 104.8,201.9 
			95,195.3 106.4,195.3 		"/>
		<polygon fill="#FFFFFF" points="111.3,234.4 114.5,245.8 125.9,245.8 116.2,252.3 121,263.7 111.3,257.2 101.5,263.7 104.8,252.3 
			95,245.8 106.4,245.8 		"/>
		<polygon fill="#FFFFFF" points="145.5,60.2 148.7,71.6 161.7,71.6 152,78.1 155.2,89.5 145.5,83 135.7,89.5 139,78.1 129.2,71.6 
			142.2,71.6 		"/>
		<polygon fill="#FFFFFF" points="145.5,110.7 148.7,122.1 161.7,122.1 152,128.6 155.2,140 145.5,133.5 135.7,140 139,128.6 
			129.2,122.1 142.2,122.1 		"/>
		<polygon fill="#FFFFFF" points="145.5,159.5 148.7,170.9 161.7,170.9 152,179.1 155.2,190.5 145.5,182.3 135.7,190.5 139,179.1 
			129.2,170.9 142.2,170.9 		"/>
		<polygon fill="#FFFFFF" points="145.5,210 148.7,221.4 161.7,221.4 152,229.5 155.2,240.9 145.5,232.8 135.7,240.9 139,229.5 
			129.2,221.4 142.2,221.4 		"/>
		<polygon fill="#FFFFFF" points="181.3,32.6 184.5,44 197.6,44 187.8,52.1 191,63.5 181.3,55.3 171.5,63.5 174.8,52.1 165,44 
			178,44 		"/>
		<polygon fill="#FFFFFF" points="181.3,83 184.5,94.4 197.6,94.4 187.8,102.6 191,114 181.3,105.8 171.5,114 174.8,102.6 165,94.4 
			178,94.4 		"/>
		<polygon fill="#FFFFFF" points="181.3,133.5 184.5,144.9 197.6,144.9 187.8,151.4 191,164.4 181.3,156.3 171.5,164.4 174.8,151.4 
			165,144.9 178,144.9 		"/>
		<polygon fill="#FFFFFF" points="181.3,184 184.5,195.3 197.6,195.3 187.8,201.9 191,213.3 181.3,206.7 171.5,213.3 174.8,201.9 
			165,195.3 178,195.3 		"/>
		<polygon fill="#FFFFFF" points="181.3,234.4 184.5,245.8 197.6,245.8 187.8,252.3 191,263.7 181.3,257.2 171.5,263.7 174.8,252.3 
			165,245.8 178,245.8 		"/>
		<polygon fill="#FFFFFF" points="215.5,60.2 220.3,71.6 231.7,71.6 222,78.1 225.2,89.5 215.5,83 205.7,89.5 210.6,78.1 
			200.8,71.6 212.2,71.6 		"/>
		<polygon fill="#FFFFFF" points="215.5,110.7 220.3,122.1 231.7,122.1 222,128.6 225.2,140 215.5,133.5 205.7,140 210.6,128.6 
			200.8,122.1 212.2,122.1 		"/>
		<polygon fill="#FFFFFF" points="215.5,159.5 220.3,170.9 231.7,170.9 222,179.1 225.2,190.5 215.5,182.3 205.7,190.5 210.6,179.1 
			200.8,170.9 212.2,170.9 		"/>
		<polygon fill="#FFFFFF" points="215.5,210 220.3,221.4 231.7,221.4 222,229.5 225.2,240.9 215.5,232.8 205.7,240.9 210.6,229.5 
			200.8,221.4 212.2,221.4 		"/>
		<polygon fill="#FFFFFF" points="251.3,32.6 254.5,44 267.6,44 257.8,52.1 261,63.5 251.3,55.3 241.5,63.5 246.4,52.1 236.6,44 
			248,44 		"/>
		<polygon fill="#FFFFFF" points="251.3,83 254.5,94.4 267.6,94.4 257.8,102.6 261,114 251.3,105.8 241.5,114 246.4,102.6 
			236.6,94.4 248,94.4 		"/>
		<polygon fill="#FFFFFF" points="251.3,133.5 254.5,144.9 267.6,144.9 257.8,151.4 261,164.4 251.3,156.3 241.5,164.4 246.4,151.4 
			236.6,144.9 248,144.9 		"/>
		<polygon fill="#FFFFFF" points="251.3,184 254.5,195.3 267.6,195.3 257.8,201.9 261,213.3 251.3,206.7 241.5,213.3 246.4,201.9 
			236.6,195.3 248,195.3 		"/>
		<polygon fill="#FFFFFF" points="251.3,234.4 254.5,245.8 267.6,245.8 257.8,252.3 261,263.7 251.3,257.2 241.5,263.7 246.4,252.3 
			236.6,245.8 248,245.8 		"/>
		<polygon fill="#FFFFFF" points="287.1,60.2 290.3,71.6 301.7,71.6 292,78.1 296.9,89.5 287.1,83 277.3,89.5 280.6,78.1 
			270.8,71.6 282.2,71.6 		"/>
		<polygon fill="#FFFFFF" points="287.1,110.7 290.3,122.1 301.7,122.1 292,128.6 296.9,140 287.1,133.5 277.3,140 280.6,128.6 
			270.8,122.1 282.2,122.1 		"/>
		<polygon fill="#FFFFFF" points="287.1,159.5 290.3,170.9 301.7,170.9 292,179.1 296.9,190.5 287.1,182.3 277.3,190.5 280.6,179.1 
			270.8,170.9 282.2,170.9 		"/>
		<polygon fill="#FFFFFF" points="287.1,210 290.3,221.4 301.7,221.4 292,229.5 296.9,240.9 287.1,232.8 277.3,240.9 280.6,229.5 
			270.8,221.4 282.2,221.4 		"/>
		<polygon fill="#FFFFFF" points="322.9,32.6 326.2,44 337.6,44 327.8,52.1 331,63.5 322.9,55.3 313.1,63.5 316.4,52.1 306.6,44 
			318,44 		"/>
		<polygon fill="#FFFFFF" points="322.9,83 326.2,94.4 337.6,94.4 327.8,102.6 331,114 322.9,105.8 313.1,114 316.4,102.6 
			306.6,94.4 318,94.4 		"/>
		<polygon fill="#FFFFFF" points="322.9,133.5 326.2,144.9 337.6,144.9 327.8,151.4 331,164.4 322.9,156.3 313.1,164.4 316.4,151.4 
			306.6,144.9 318,144.9 		"/>
		<polygon fill="#FFFFFF" points="322.9,184 326.2,195.3 337.6,195.3 327.8,201.9 331,213.3 322.9,206.7 313.1,213.3 316.4,201.9 
			306.6,195.3 318,195.3 		"/>
		<polygon fill="#FFFFFF" points="322.9,234.4 326.2,245.8 337.6,245.8 327.8,252.3 331,263.7 322.9,257.2 313.1,263.7 316.4,252.3 
			306.6,245.8 318,245.8 		"/>
		<polygon fill="#FFFFFF" points="357.1,60.2 360.3,71.6 373.4,71.6 363.6,78.1 366.9,89.5 357.1,83 347.3,89.5 350.6,78.1 
			340.8,71.6 353.8,71.6 		"/>
		<polygon fill="#FFFFFF" points="357.1,110.7 360.3,122.1 373.4,122.1 363.6,128.6 366.9,140 357.1,133.5 347.3,140 350.6,128.6 
			340.8,122.1 353.8,122.1 		"/>
		<polygon fill="#FFFFFF" points="357.1,159.5 360.3,170.9 373.4,170.9 363.6,179.1 366.9,190.5 357.1,182.3 347.3,190.5 
			350.6,179.1 340.8,170.9 353.8,170.9 		"/>
		<polygon fill="#FFFFFF" points="357.1,210 360.3,221.4 373.4,221.4 363.6,229.5 366.9,240.9 357.1,232.8 347.3,240.9 350.6,229.5 
			340.8,221.4 353.8,221.4 		"/>
		<polygon fill="#FFFFFF" points="392.9,32.6 396.2,44 407.6,44 397.8,52.1 402.7,63.5 392.9,55.3 383.1,63.5 386.4,52.1 376.6,44 
			389.7,44 		"/>
		<polygon fill="#FFFFFF" points="392.9,83 396.2,94.4 407.6,94.4 397.8,102.6 402.7,114 392.9,105.8 383.1,114 386.4,102.6 
			376.6,94.4 389.7,94.4 		"/>
		<polygon fill="#FFFFFF" points="392.9,133.5 396.2,144.9 407.6,144.9 397.8,151.4 402.7,164.4 392.9,156.3 383.1,164.4 
			386.4,151.4 376.6,144.9 389.7,144.9 		"/>
		<polygon fill="#FFFFFF" points="392.9,184 396.2,195.3 407.6,195.3 397.8,201.9 402.7,213.3 392.9,206.7 383.1,213.3 386.4,201.9 
			376.6,195.3 389.7,195.3 		"/>
		<polygon fill="#FFFFFF" points="392.9,234.4 396.2,245.8 407.6,245.8 397.8,252.3 402.7,263.7 392.9,257.2 383.1,263.7 
			386.4,252.3 376.6,245.8 389.7,245.8 		"/>
	</g>
</g>
</svg>
