<?xml version="1.0" encoding="UTF-8" standalone="no"?>
<svg width="24px" height="24px" viewBox="0 0 24 24" version="1.1" xmlns="http://www.w3.org/2000/svg" xmlns:xlink="http://www.w3.org/1999/xlink">
    <!-- Generator: Sketch 3.7.2 (28276) - http://www.bohemiancoding.com/sketch -->
    <title>less</title>
    <desc>Created with Sketch.</desc>
    <defs></defs>
    <g id="Page-1" stroke="none" stroke-width="1" fill="none" fill-rule="evenodd">
        <g id="Icon-Set" transform="translate(-807.000000, -558.000000)" fill="#4A4A4A">
            <path d="M818.41359,570.00275 C818.43559,569.71975 818.34959,569.43175 818.13359,569.21575 L809.21059,560.30775 C808.81759,559.91475 808.17959,559.91475 807.78459,560.30775 C807.39159,560.70175 807.39159,561.33875 807.78459,561.73175 L816.07059,570.00275 L807.78459,578.27475 C807.39159,578.66675 807.39159,579.30475 807.78459,579.69775 C808.17959,580.09075 808.81759,580.09075 809.21059,579.69775 L818.13359,570.79075 C818.34959,570.57475 818.43559,570.28675 818.41359,570.00275 L818.41359,570.00275 Z M830.23259,569.21575 L819.29359,558.29475 C818.90059,557.90175 818.26159,557.90175 817.86759,558.29475 C817.47359,558.68875 817.47359,559.32575 817.86759,559.71875 L828.16859,570.00275 L817.86759,580.28775 C817.47359,580.68075 817.47359,581.31775 817.86759,581.71075 C818.26159,582.10375 818.90059,582.10375 819.29359,581.71075 L830.23259,570.79075 C830.44759,570.57475 830.53359,570.28675 830.51259,570.00275 C830.53359,569.71975 830.44759,569.43175 830.23259,569.21575 L830.23259,569.21575 Z" id="less" transform="translate(819.002750, 570.002750) rotate(-270.000000) translate(-819.002750, -570.002750) "></path>
        </g>
    </g>
</svg>