<?xml version="1.0" encoding="UTF-8" standalone="no"?>
<svg width="24px" height="24px" viewBox="0 0 24 24" version="1.1" xmlns="http://www.w3.org/2000/svg" xmlns:xlink="http://www.w3.org/1999/xlink">
    <!-- Generator: Sketch 3.7.2 (28276) - http://www.bohemiancoding.com/sketch -->
    <title>more</title>
    <desc>Created with Sketch.</desc>
    <defs></defs>
    <g id="Page-1" stroke="none" stroke-width="1" fill="none" fill-rule="evenodd">
        <g id="Icon-Set" transform="translate(-808.000000, -689.000000)" fill="#4A4A4A">
            <path d="M819.41359,701.00275 C819.43559,700.71975 819.34959,700.43175 819.13359,700.21575 L810.21059,691.30775 C809.81759,690.91475 809.17959,690.91475 808.78459,691.30775 C808.39159,691.70175 808.39159,692.33875 808.78459,692.73175 L817.07059,701.00275 L808.78459,709.27475 C808.39159,709.66675 808.39159,710.30475 808.78459,710.69775 C809.17959,711.09075 809.81759,711.09075 810.21059,710.69775 L819.13359,701.79075 C819.34959,701.57475 819.43559,701.28675 819.41359,701.00275 L819.41359,701.00275 Z M831.23259,700.21575 L820.29359,689.29475 C819.90059,688.90175 819.26159,688.90175 818.86759,689.29475 C818.47359,689.68875 818.47359,690.32575 818.86759,690.71875 L829.16859,701.00275 L818.86759,711.28775 C818.47359,711.68075 818.47359,712.31775 818.86759,712.71075 C819.26159,713.10375 819.90059,713.10375 820.29359,712.71075 L831.23259,701.79075 C831.44759,701.57475 831.53359,701.28675 831.51259,701.00275 C831.53359,700.71975 831.44759,700.43175 831.23259,700.21575 L831.23259,700.21575 Z" id="more" transform="translate(820.002750, 701.002750) rotate(-90.000000) translate(-820.002750, -701.002750) "></path>
        </g>
    </g>
</svg>