<?xml version="1.0" encoding="utf-8"?>
<!-- Generator: Adobe Illustrator 18.1.0, SVG Export Plug-In . SVG Version: 6.00 Build 0)  -->
<svg version="1.1" id="Calque_1" xmlns="http://www.w3.org/2000/svg" xmlns:xlink="http://www.w3.org/1999/xlink" x="0px" y="0px"
	 viewBox="400 0 560 560" enable-background="new 400 0 560 560" xml:space="preserve">
<path fill="#0177B5" d="M960,280c0,154.9-125.1,280-280,280S400,434.9,400,280S525.1,0,680,0S960,125.1,960,280z"/>
<path display="none" fill="#FFFFFF" d="M753.3,156.2c-16.6,0-27.7,0-36,0c-13.8,0-18,3.5-18,18c0,13.1,0,45.6,0,45.6h53.9l-6.9,54.6
	h-47v183.9H635V273.8h-43.6v-53.9h38c0,0,0-35.3,0-44.9c0-9.7-2.1-73.3,79.5-73.3c11.1,0,23.5,0,44.9,0
	C753.3,129.3,753.3,147.3,753.3,156.2z"/>
<g id="Calque_2">
	<path fill-rule="evenodd" clip-rule="evenodd" fill="#FFFFFF" d="M599,423.9V196.4h-75.6v227.5H599L599,423.9z M561.2,165.3
		c26.4,0,42.8-17.5,42.8-39.3c-0.5-22.3-16.4-39.3-42.3-39.3c-25.9,0-42.8,17-42.8,39.3c0,21.8,16.4,39.3,41.8,39.3H561.2
		L561.2,165.3z"/>
	<path fill-rule="evenodd" clip-rule="evenodd" fill="#FFFFFF" d="M640.9,423.9h75.6v-127c0-6.8,0.5-13.6,2.5-18.4
		c5.5-13.6,17.9-27.7,38.8-27.7c27.4,0,38.3,20.9,38.3,51.4v121.7h75.6V293.4c0-69.9-37.3-102.4-87-102.4
		c-40.8,0-58.7,22.8-68.6,38.3h0.5v-33h-75.6C641.8,217.7,640.9,423.9,640.9,423.9L640.9,423.9z"/>
</g>
</svg>
