<?xml version="1.0" encoding="utf-8"?>
<!-- Generator: Adobe Illustrator 18.1.0, SVG Export Plug-In . SVG Version: 6.00 Build 0)  -->
<svg version="1.1" id="Calque_1" xmlns="http://www.w3.org/2000/svg" xmlns:xlink="http://www.w3.org/1999/xlink" x="0px" y="0px"
	 viewBox="200.1 -0.4 560 560" enable-background="new 200.1 -0.4 560 560" xml:space="preserve">
<path fill="#314358" d="M760.1,279.6c0,154.9-125.1,280-280,280s-280-125.1-280-280s125.1-280,280-280
	C635-0.4,760.1,124.7,760.1,279.6z"/>
<path fill="#FFFFFF" d="M565.1,372.9c-5.5,2.8-16.6,4.8-24.9,5.5c-24.9,0.7-29.7-17.3-29.7-30.4v-96.1h62.2v-47h-62.2v-78.8
	c0,0-44.9,0-45.6,0s-2.1,0.7-2.1,2.1c-2.8,24.2-13.8,66.4-60.8,83.7v40.1h31.8v100.9c0,34.6,25.6,83.7,93.3,83
	c22.8-0.7,48.4-9.7,53.9-18L565.1,372.9"/>
</svg>
