<?xml version="1.0" encoding="utf-8"?>
<!-- Generator: Adobe Illustrator 18.1.0, SVG Export Plug-In . SVG Version: 6.00 Build 0)  -->
<svg version="1.1" id="Calque_1" xmlns="http://www.w3.org/2000/svg" xmlns:xlink="http://www.w3.org/1999/xlink" x="0px" y="0px"
	 viewBox="400 0 560 560" enable-background="new 400 0 560 560" xml:space="preserve">
<path fill="#31A7DF" d="M960,280c0,154.4-125.6,280-280,280S400,435.1,400,280C400,125.6,525.6,0,680,0S960,125.6,960,280z"/>
<path fill="#FFFFFF" d="M826.9,183.2c26.1-19.9,32.9-42.5,32.9-42.5c-2.7,2.1-32.9,14.4-49.4,18.5c-11.7-13.7-27.5-24-54.9-24
	c-69.3,0-81,71.4-73.4,92c-82.4,0-140.7-63.1-153.7-76.9c-28.1,41.9,3.4,89.9,19.9,99.5c0,0-20.6-0.7-30.9-8.9
	c-1.4,51.5,39.1,69.3,58.3,76.9c-8.9,3.4-26.1,1.4-32.9,0c17.2,45.3,56.3,51.5,70,52.8C561.3,411.8,503,400.1,503,400.1
	c28.1,22.6,71.4,35,113.2,35c152.4,0,218.2-129.7,215.5-225.8c24.7-17.2,36.4-38.4,36.4-38.4C864.6,174.3,835.8,180.5,826.9,183.2z"
	/>
</svg>
