<?xml version="1.0" encoding="utf-8"?>
<!-- Generator: Adobe Illustrator 18.1.0, SVG Export Plug-In . SVG Version: 6.00 Build 0)  -->
<svg version="1.1" id="Calque_1" xmlns="http://www.w3.org/2000/svg" xmlns:xlink="http://www.w3.org/1999/xlink" x="0px" y="0px"
	 viewBox="400 0 560 560" enable-background="new 400 0 560 560" xml:space="preserve">
<path fill="#4B64A7" d="M960,280c0,154.9-125.1,280-280,280S400,434.9,400,280S525.1,0,680,0S960,125.1,960,280z"/>
<path fill="#FFFFFF" d="M753.3,156.2c-16.6,0-27.7,0-36,0c-13.8,0-18,3.5-18,18c0,13.1,0,45.6,0,45.6h53.9l-6.9,54.6h-47v183.9H635
	V273.8h-43.6v-53.9h38c0,0,0-35.3,0-44.9c0-9.7-2.1-73.3,79.5-73.3c11.1,0,23.5,0,44.9,0C753.3,129.3,753.3,147.3,753.3,156.2z"/>
</svg>
