<?xml version="1.0" encoding="utf-8"?>
<!-- Generator: Adobe Illustrator 18.1.0, SVG Export Plug-In . SVG Version: 6.00 Build 0)  -->
<svg version="1.1" id="Calque_1" xmlns="http://www.w3.org/2000/svg" xmlns:xlink="http://www.w3.org/1999/xlink" x="0px" y="0px"
	 viewBox="400 0 560 560" enable-background="new 400 0 560 560" xml:space="preserve">
<path fill="#282828" d="M960,280c0,154.9-125.1,280-280,280S400,434.9,400,280S525.1,0,680,0S960,125.1,960,280z"/>
<g id="Calque_4">
	<linearGradient id="SVGID_1_" gradientUnits="userSpaceOnUse" x1="631.5955" y1="379.3736" x2="631.5955" y2="379.3736">
		<stop  offset="0" style="stop-color:#F3941B"/>
		<stop  offset="0.1055" style="stop-color:#F39720"/>
		<stop  offset="0.238" style="stop-color:#F49E30"/>
		<stop  offset="0.3849" style="stop-color:#F5AA4A"/>
		<stop  offset="0.5422" style="stop-color:#F7BB6D"/>
		<stop  offset="0.7079" style="stop-color:#FAD09B"/>
		<stop  offset="0.8778" style="stop-color:#FDEAD3"/>
		<stop  offset="1" style="stop-color:#FFFFFF"/>
	</linearGradient>
	<path fill="url(#SVGID_1_)" d="M631.6,379.4"/>
	<g id="feuille_2_">
		<g>
			<g>
				<g>
					<path fill="#EB6311" d="M670.3,96.1c29.8,50,46,94.9,49.6,105.6c0-0.3,0-0.4,0-0.4C712.6,124.1,670.3,96.1,670.3,96.1z
						 M719.9,201.7c0.7,9.8,11.6,185.9-81.6,221.2c0,0,8.6,1.6,18.2,1.1c0,0,118.5-74.8,64.2-219.9
						C720.7,204.1,720.4,203.3,719.9,201.7z M819.1,104.2c-15.1,32.2-43.2,38.1-43.2,38.1c-28,7.1-37.8,17.9-37.8,17.9
						c-28,28.2-5.9,62.3-5.9,62.3c60.5-13.8,82.6-63.5,82.6-63.5c-2.7,33.4-74.7,72.9-74.7,72.9c23.8,23.3,46.6,20.5,61.6,11.6
						c19.9-11.9,29.5-37.8,29.5-37.8C850.5,148,819.1,104.2,819.1,104.2z"/>
				</g>
			</g>
		</g>
	</g>
	<path fill="#FFFFFF" d="M750.5,326.3c0,17.8-4.2,34.3-12.7,49.7c-8.5,15.4-19.9,27.2-34.4,35.6c-14.4,8.4-30.3,12.5-47.5,12.5
		c-17.3,0-33.1-4.2-47.5-12.5c-14.4-8.4-25.9-20.2-34.4-35.6c-8.5-15.4-12.7-31.9-12.7-49.7c0-27.5,9.3-51,27.9-70.4
		c18.6-19.4,40.8-29.1,66.7-29.1c12.3,0,23.8,2.2,34.5,6.7c1.1-11.3,5-21.7,9.4-30.3c-13.5-4.9-28-7.4-43.8-7.4
		c-37.4,0-68.4,13.8-92.9,41.3c-22.3,25-33.4,54.5-33.4,88.5c0,34.3,11.8,64.3,35.3,90c23.5,25.7,53.9,38.5,91,38.5
		c37,0,67.2-12.8,90.8-38.5c23.5-25.7,35.3-55.7,35.3-90c0-18.4-3.2-35.4-9.7-51.1c-10.8,6.6-21.1,10.1-29.6,11.9
		C747.9,298.6,750.5,311.9,750.5,326.3z"/>
</g>
</svg>
